<?xml version="1.0" encoding="utf-8"?>
<!-- Generator: Adobe Illustrator 25.3.0, SVG Export Plug-In . SVG Version: 6.00 Build 0)  -->
<svg version="1.1" id="Livello_1" xmlns="http://www.w3.org/2000/svg" xmlns:xlink="http://www.w3.org/1999/xlink" x="0px" y="0px"
	 viewBox="0 0 1080 1080" style="enable-background:new 0 0 1080 1080;" xml:space="preserve">
<style type="text/css">
	.st0{fill:none;stroke:#000000;stroke-miterlimit:10;}
</style>
<path class="st0" d="M865.77,707.61l57.6,59.78L767.39,923.37l-58.36-58.35c-142.14,75.48-322.52,53.36-442.25-66.37
	c-146.87-146.87-146.87-384.99,0-531.86s384.99-146.87,531.86,0C917.98,386.11,940.35,565.69,865.77,707.61z"/>
<g>
	<path class="st0" d="M496.62,676.79c15.86-15.57,30.97-31.42,44.72-48.91c2.75,22,4.12,43.84,4.46,65.99
		c26.23-1.23,52.45-2.48,78.68-3.73c-18.01,16.31-37.15,31.25-56.43,46.02c19.28,14.76,38.42,29.71,56.43,46.02
		c-26.23-1.25-52.45-2.5-78.68-3.73c-0.34,22.16-1.71,44-4.46,65.99c-13.75-17.49-28.86-33.34-44.72-48.91
		c-15.78,15.23-31.59,30.66-45.06,48.03c-2.56-21.81-3.8-43.47-4.05-65.43c-26.23,1.05-52.46,2.1-78.69,3.15
		c18.14-15.9,37.28-30.57,56.51-45.12c-19.23-14.55-38.37-29.21-56.51-45.12c26.23,1.05,52.46,2.1,78.69,3.15
		c0.25-21.96,1.49-43.62,4.05-65.43C465.03,646.14,480.84,661.56,496.62,676.79z"/>
</g>
<g>
	<path class="st0" d="M554.37,257.9c15.01-21.25,29.06-42.67,41.11-65.75c3.22,25.72,5.25,51.38,6.41,77.27
		c26.14-11.1,52.1-22.57,77.74-34.8c-12.4,23.57-26.99,45.16-42.83,66.55c32.61,3.24,65.21,6.48,97.82,9.73
		c-29.79,11.03-59.68,21.79-89.62,32.43c23.99,16.75,47.64,33.86,70.54,52.09c-31.09-4.56-62.18-9.04-93.29-13.47
		c7.65,24.9,13.74,49.53,17.2,75.37c-19.11-18.88-39.41-36.06-60.39-52.82c-8.74,24.61-17.3,49.23-24.94,74.2
		c-7.37-25.06-15.75-49.74-24.38-74.4c-21,16.46-41.41,33.3-60.74,51.71c3.68-25.5,9.92-49.84,17.64-74.41
		c-31.11,4.22-62.23,8.47-93.33,12.74c23.02-17.79,46.71-34.58,70.66-51.09c-29.91-10.54-59.8-21.12-89.64-31.87
		c32.6-3.28,65.2-6.58,97.8-9.91c-15.83-21.01-30.53-42.23-43.14-65.35c25.76,11.74,51.78,22.83,77.93,33.64
		c1.02-25.72,2.86-51.25,5.83-76.82C525.07,215.71,539.29,236.88,554.37,257.9z"/>
</g>
</svg>
